HIERARCHY
ROOT Hips
{
 OFFSET 0.000000 0.000000 0.000000
 CHANNELS 6 Xposition Yposition Zposition Yrotation Xrotation Zrotation
 JOINT Chest
 {
  OFFSET 0.000000 9.588913 -0.003946
  CHANNELS 3 Yrotation Xrotation Zrotation
  JOINT Chest2
  {
   OFFSET 0.000000 9.541882 0.008053
   CHANNELS 3 Yrotation Xrotation Zrotation
   JOINT Chest3
   {
    OFFSET 0.000000 9.501360 0.000000
    CHANNELS 3 Yrotation Xrotation Zrotation
    JOINT Chest4
    {
     OFFSET 0.000000 9.491660 0.000000
     CHANNELS 3 Yrotation Xrotation Zrotation
     JOINT Neck
     {
      OFFSET 0.000000 14.331917 0.000000
      CHANNELS 3 Yrotation Xrotation Zrotation
      JOINT Head
      {
       OFFSET 0.000000 8.884799 0.017034
       CHANNELS 3 Yrotation Xrotation Zrotation
       End Site
       {
        OFFSET 0.000000 16.896195 0.008993
       }
      }
     }
     JOINT RightCollar
     {
      OFFSET -2.923010 9.499495 0.000000
      CHANNELS 3 Yrotation Xrotation Zrotation
      JOINT RightShoulder
      {
       OFFSET -13.795216 0.000000 0.000000
       CHANNELS 3 Yrotation Xrotation Zrotation
       JOINT RightElbow
       {
        OFFSET -30.272209 0.000000 0.000000
        CHANNELS 3 Yrotation Xrotation Zrotation
        JOINT RightWrist
        {
         OFFSET -24.478199 0.000000 0.000000
         CHANNELS 3 Yrotation Xrotation Zrotation
         End Site
         {
          OFFSET -18.090752 0.000000 0.000000
         }
        }
       }
      }
     }
     JOINT LeftCollar
     {
      OFFSET 2.923010 9.499495 0.000000
      CHANNELS 3 Yrotation Xrotation Zrotation
      JOINT LeftShoulder
      {
       OFFSET 13.795216 0.000000 0.000000
       CHANNELS 3 Yrotation Xrotation Zrotation
       JOINT LeftElbow
       {
        OFFSET 30.272209 0.000000 0.000000
        CHANNELS 3 Yrotation Xrotation Zrotation
        JOINT LeftWrist
        {
         OFFSET 24.478199 0.000000 0.000000
         CHANNELS 3 Yrotation Xrotation Zrotation
         End Site
         {
          OFFSET 18.090752 0.000000 0.000000
         }
        }
       }
      }
     }
    }
   }
  }
 }
 JOINT RightHip
 {
  OFFSET -7.826875 0.019532 0.001973
  CHANNELS 3 Yrotation Xrotation Zrotation
  JOINT RightKnee
  {
   OFFSET 0.000000 -40.546152 -0.001885
   CHANNELS 3 Yrotation Xrotation Zrotation
   JOINT RightAnkle
   {
    OFFSET 0.000000 -39.417092 -0.003189
    CHANNELS 3 Yrotation Xrotation Zrotation
    JOINT RightToe
    {
     OFFSET 0.000000 -7.579396 17.243563
     CHANNELS 3 Yrotation Xrotation Zrotation
     End Site
     {
      OFFSET 0.000000 -1.500329 6.694466
     }
    }
   }
  }
 }
 JOINT LeftHip
 {
  OFFSET 7.826875 0.019532 0.001973
  CHANNELS 3 Yrotation Xrotation Zrotation
  JOINT LeftKnee
  {
   OFFSET 0.000000 -40.546152 -0.001885
   CHANNELS 3 Yrotation Xrotation Zrotation
   JOINT LeftAnkle
   {
    OFFSET 0.000000 -39.417092 -0.003189
    CHANNELS 3 Yrotation Xrotation Zrotation
    JOINT LeftToe
    {
     OFFSET 0.000000 -7.579396 17.243563
     CHANNELS 3 Yrotation Xrotation Zrotation
     End Site
     {
      OFFSET 0.000000 -1.500329 6.694466
     }
    }
   }
  }
 }
}
MOTION
Frames: 10
Frame Time: 0.008333
0.000000 87.345680 0.000000 0.000000 -5.767889 0.000000 0.000000 11.653876 0.000000 0.000000 -5.885988 0.000000 0.000000 -0.000000 0.000000 0.000000 -0.000000 0.000000 0.000000 12.528808 0.000000 0.000000 0.711711 0.000000 0.000000 -0.000000 0.000000 0.000000 -0.000000 0.000000 2.309063 -0.000000 0.000000 -2.309063 -0.000000 -0.000000 0.000000 -0.000000 0.000000 0.000000 0.000000 0.000000 -2.309063 0.000000 0.000000 2.309063 -0.000000 0.000000 0.000000 8.520374 0.000000 0.000000 1.905768 0.000000 -0.000000 -4.658254 0.000000 0.000000 -0.000000 0.000000 0.000000 8.520374 0.000000 0.000000 1.905768 0.000000 -0.000000 -4.658254 0.000000 0.000000 -0.000000 0.000000
3.169687 89.173294 -13.150113 139.554709 -8.603072 -0.372064 -3.308012 4.229416 0.356304 -1.902421 2.416682 0.246665 -2.376928 3.022027 0.295835 -1.902421 2.416682 0.246665 -2.002920 22.557862 -0.101983 -3.585995 6.114979 0.349441 9.468584 0.582419 -1.317457 3.473709 -6.716081 85.749951 2.655968 5.212068 -0.072240 -1.208723 -1.648617 0.908312 6.308697 0.021502 -0.832276 -8.378217 -6.651607 -88.652283 0.718075 14.845983 2.390925 0.693857 2.538631 -0.590472 -18.572984 10.487467 -4.331147 1.904231 4.549222 0.462114 -2.585836 -5.934814 1.529433 -0.020706 -0.051009 -0.007212 -12.095064 11.060728 -1.955794 -2.034895 2.996016 -0.091242 -0.496728 -5.077574 0.644342 0.042116 0.055971 0.020373
3.159872 89.173906 -13.156318 139.503398 -8.592117 -0.381995 -3.320701 4.228867 0.364572 -1.910637 2.416182 0.252675 -2.387160 3.021438 0.303297 -1.910637 2.416182 0.252675 -2.011243 22.591958 -0.081437 -3.606083 6.179039 0.387833 9.465918 0.592535 -1.322752 3.442168 -6.719053 85.751290 2.656379 5.193295 -0.083303 -1.209411 -1.650892 0.902320 6.301339 0.007256 -0.840518 -8.421637 -6.663390 -88.645861 0.719876 14.835051 2.387728 0.687689 2.546925 -0.604394 -18.555884 10.478373 -4.325185 1.905409 4.530787 0.460981 -2.568390 -5.913034 1.536545 -0.021386 -0.050695 -0.007469 -12.082932 11.064322 -1.951059 -2.030340 2.978958 -0.092744 -0.474983 -5.074467 0.654322 0.039740 0.058231 0.018564
3.148256 89.174467 -13.163552 139.445880 -8.579539 -0.393420 -3.331189 4.227409 0.373109 -1.917636 2.415146 0.259041 -2.395869 3.020180 0.311215 -1.917636 2.415146 0.259041 -2.018118 22.624894 -0.064130 -3.622693 6.240830 0.420014 9.464423 0.602338 -1.326243 3.409865 -6.717793 85.753279 2.657397 5.178857 -0.093080 -1.208539 -1.653213 0.899962 6.298535 -0.006097 -0.847888 -8.456880 -6.679617 -88.638481 0.721609 14.832247 2.384462 0.676002 2.559840 -0.619921 -18.536336 10.465362 -4.319846 1.909145 4.514872 0.462034 -2.549083 -5.891483 1.542994 -0.021051 -0.050711 -0.006722 -12.066810 11.066728 -1.944798 -2.028975 2.962444 -0.096277 -0.449407 -5.071951 0.667852 0.037103 0.060358 0.016154
3.135352 89.174934 -13.171704 139.385026 -8.566964 -0.405910 -3.339580 4.225523 0.381909 -1.923375 2.413872 0.265563 -2.403001 3.018626 0.319338 -1.923375 2.413873 0.265563 -2.023349 22.656137 -0.050217 -3.635445 6.299351 0.445674 9.462595 0.612502 -1.327931 3.380542 -6.713790 85.755965 2.656831 5.165148 -0.104148 -1.205990 -1.655190 0.900783 6.297860 -0.019084 -0.854001 -8.489547 -6.698462 -88.631419 0.717214 14.831918 2.378435 0.664996 2.569547 -0.633410 -18.516104 10.451025 -4.316356 1.916213 4.500238 0.466322 -2.530312 -5.870275 1.549056 -0.019688 -0.051016 -0.005926 -12.054298 11.069467 -1.940143 -2.025761 2.945864 -0.098290 -0.421466 -5.069701 0.681943 0.034634 0.062583 0.013775
3.121304 89.175245 -13.180774 139.321867 -8.554742 -0.416674 -3.346611 4.223725 0.390935 -1.928100 2.412810 0.271495 -2.408870 3.017332 0.326729 -1.928100 2.412810 0.271495 -2.026537 22.685152 -0.040523 -3.643410 6.353572 0.463238 9.461236 0.623887 -1.328570 3.355904 -6.710615 85.758345 2.653262 5.152149 -0.114558 -1.201602 -1.658570 0.899822 6.299340 -0.031630 -0.860181 -8.520830 -6.718411 -88.625381 0.703622 14.831241 2.368934 0.656280 2.573855 -0.642265 -18.496446 10.435116 -4.316418 1.924841 4.486909 0.471887 -2.511783 -5.850109 1.556235 -0.018090 -0.051071 -0.005656 -12.047704 11.071992 -1.941508 -2.017668 2.929591 -0.095332 -0.393989 -5.067987 0.694006 0.033365 0.064858 0.011987
3.106777 89.175428 -13.190974 139.254209 -8.545917 -0.424746 -3.354327 4.223661 0.399281 -1.932940 2.412742 0.276429 -2.414889 3.017276 0.332866 -1.932940 2.412743 0.276429 -2.024965 22.711942 -0.035573 -3.641557 6.403424 0.471047 9.467642 0.637228 -1.328905 3.332818 -6.710398 85.760297 2.648635 5.138145 -0.123030 -1.200013 -1.665470 0.896828 6.307116 -0.044291 -0.866540 -8.548603 -6.739230 -88.620208 0.682060 14.827588 2.356511 0.647247 2.574627 -0.645918 -18.475033 10.419862 -4.320374 1.928858 4.476584 0.476114 -2.487552 -5.831689 1.566729 -0.017156 -0.051014 -0.006796 -12.043562 11.076833 -1.948192 -2.005456 2.915392 -0.091086 -0.366844 -5.067709 0.706177 0.033061 0.066476 0.010593
3.092276 89.175455 -13.202110 139.182747 -8.540741 -0.431478 -3.363267 4.225013 0.406501 -1.938286 2.413307 0.280782 -2.421544 3.018008 0.338269 -1.938286 2.413307 0.280782 -2.017718 22.737075 -0.034776 -3.628397 6.449957 0.469919 9.481366 0.652943 -1.327963 3.312299 -6.712158 85.762018 2.643052 5.121317 -0.131661 -1.202895 -1.673957 0.894163 6.321375 -0.055686 -0.871710 -8.572932 -6.761365 -88.615515 0.652971 14.820927 2.339495 0.639788 2.573003 -0.642695 -18.452225 10.405636 -4.327811 1.928290 4.470387 0.480724 -2.456197 -5.815733 1.579299 -0.016928 -0.050943 -0.009003 -12.039127 11.084560 -1.956595 -1.992103 2.903514 -0.089253 -0.338847 -5.069003 0.720558 0.032824 0.067429 0.009261
3.077744 89.175237 -13.213902 139.112141 -8.536797 -0.437597 -3.371153 4.226596 0.413447 -1.942965 2.413897 0.284950 -2.427367 3.018771 0.343447 -1.942965 2.413897 0.284950 -2.007840 22.760776 -0.037522 -3.609578 6.493676 0.461754 9.490123 0.669393 -1.323292 3.295956 -6.714378 85.761429 2.633986 5.103938 -0.141283 -1.205092 -1.676417 0.891918 6.329116 -0.064301 -0.875520 -8.585439 -6.784397 -88.612238 0.614537 14.819801 2.318265 0.635041 2.566269 -0.632528 -18.434346 10.390536 -4.339834 1.930037 4.467882 0.489782 -2.422543 -5.802974 1.590170 -0.016900 -0.050498 -0.010754 -12.035146 11.093190 -1.965228 -1.980911 2.892512 -0.089468 -0.310233 -5.071821 0.735628 0.032662 0.068702 0.008736
3.063034 89.174746 -13.226566 139.044589 -8.533814 -0.441804 -3.377606 4.228842 0.420474 -1.946724 2.414712 0.288910 -2.432040 3.019813 0.348369 -1.946724 2.414712 0.288910 -1.995963 22.783008 -0.043282 -3.586386 6.534542 0.447678 9.489058 0.685070 -1.318183 3.282526 -6.717448 85.760781 2.620365 5.088637 -0.152398 -1.203607 -1.674659 0.893103 6.324780 -0.072130 -0.880383 -8.585640 -6.806188 -88.610043 0.567249 14.824243 2.295366 0.631810 2.553054 -0.619627 -18.422149 10.373549 -4.357702 1.937474 4.470365 0.503714 -2.392116 -5.794827 1.598920 -0.016890 -0.049396 -0.011681 -12.033161 11.102049 -1.975808 -1.971848 2.882150 -0.090845 -0.281939 -5.075844 0.749755 0.032640 0.070085 0.009768
